<svg width="639" height="388" viewBox="0 0 639 388" fill="none" xmlns="http://www.w3.org/2000/svg">
<g clip-path="url(#clip0_1_40)">
<path d="M639 246.103C639 214.023 615.148 137.899 585.726 137.899C556.303 137.899 532.451 214.023 532.451 246.103C532.461 261.512 538.078 276.286 548.068 287.178C558.058 298.07 571.603 304.189 585.726 304.189C599.849 304.189 613.394 298.07 623.384 287.178C633.373 276.286 638.99 261.512 639 246.103Z" fill="#2F495E"/>
<path d="M585.726 387.419C585.783 387.419 585.84 387.407 585.893 387.383C585.947 387.359 585.995 387.324 586.035 387.279C586.076 387.235 586.108 387.182 586.13 387.124C586.152 387.066 586.164 387.004 586.164 386.941V186.681C586.163 186.554 586.117 186.433 586.035 186.344C585.953 186.254 585.842 186.204 585.726 186.204C585.61 186.204 585.499 186.254 585.417 186.344C585.335 186.433 585.288 186.554 585.288 186.681V386.941C585.288 387.004 585.299 387.066 585.321 387.124C585.343 387.182 585.375 387.235 585.416 387.279C585.457 387.324 585.505 387.359 585.558 387.383C585.611 387.407 585.668 387.419 585.726 387.419Z" fill="#CCCCCC"/>
<path d="M585.726 225.342C585.783 225.342 585.84 225.33 585.893 225.306C585.947 225.282 585.995 225.247 586.036 225.202L607.121 202.212C607.203 202.123 607.25 202.001 607.25 201.874C607.249 201.748 607.203 201.626 607.121 201.537C607.039 201.447 606.928 201.397 606.811 201.397C606.695 201.397 606.584 201.447 606.502 201.537L585.416 224.527C585.355 224.594 585.313 224.679 585.296 224.772C585.279 224.864 585.288 224.96 585.321 225.048C585.354 225.135 585.41 225.21 585.482 225.262C585.554 225.314 585.639 225.342 585.726 225.342Z" fill="#CCCCCC"/>
<path d="M585.726 265.143C585.812 265.143 585.897 265.115 585.969 265.063C586.041 265.01 586.097 264.935 586.13 264.848C586.164 264.761 586.172 264.665 586.155 264.572C586.138 264.48 586.097 264.394 586.036 264.328L550.723 225.826C550.683 225.782 550.635 225.746 550.581 225.722C550.528 225.698 550.471 225.686 550.414 225.686C550.356 225.686 550.299 225.698 550.246 225.722C550.193 225.746 550.145 225.781 550.104 225.826C550.063 225.87 550.031 225.923 550.009 225.981C549.987 226.039 549.976 226.101 549.976 226.164C549.976 226.226 549.987 226.288 550.009 226.346C550.031 226.404 550.063 226.457 550.104 226.501L585.416 265.003C585.457 265.047 585.505 265.083 585.558 265.107C585.611 265.131 585.668 265.143 585.726 265.143Z" fill="#CCCCCC"/>
<path d="M632.209 388H457.975C457.814 388 457.659 387.93 457.545 387.805C457.43 387.681 457.366 387.512 457.366 387.335C457.366 387.159 457.43 386.99 457.545 386.865C457.659 386.741 457.814 386.671 457.975 386.671H632.209C632.371 386.671 632.526 386.741 632.64 386.865C632.754 386.99 632.818 387.159 632.818 387.335C632.818 387.512 632.754 387.681 632.64 387.805C632.526 387.93 632.371 388 632.209 388Z" fill="#CCCCCC"/>
<path d="M509.2 379.509L501.731 379.509L498.178 348.077L509.201 348.078L509.2 379.509Z" fill="#FFB8B8"/>
<path d="M496.396 377.18H510.8V387.075H487.327C487.327 384.451 488.283 381.934 489.983 380.079C491.684 378.223 493.991 377.18 496.396 377.18Z" fill="#2F495E"/>
<path d="M563.392 370.278L556.599 373.664L541.397 346.685L551.424 341.688L563.392 370.278Z" fill="#FFB8B8"/>
<path d="M550.86 373.964L563.962 367.435L567.73 376.436L546.378 387.076C545.883 385.894 545.607 384.617 545.564 383.319C545.522 382.02 545.714 380.725 546.13 379.507C546.546 378.29 547.178 377.174 547.989 376.223C548.801 375.272 549.776 374.504 550.86 373.964Z" fill="#2F495E"/>
<path d="M508.724 371.221H501.589C500.897 371.219 500.231 370.932 499.725 370.417C499.218 369.903 498.907 369.2 498.855 368.447L494.964 255.08C494.935 254.646 494.993 254.209 495.135 253.802C495.276 253.395 495.498 253.026 495.784 252.722C496.069 252.418 496.413 252.186 496.789 252.041C497.166 251.897 497.567 251.844 497.964 251.886L539.229 256.668C539.898 256.739 540.519 257.076 540.976 257.614C541.432 258.153 541.691 258.855 541.704 259.588L542.569 309.595C542.573 309.867 542.621 310.135 542.711 310.389L559.638 358.281C559.769 358.651 559.831 359.045 559.82 359.442C559.81 359.838 559.728 360.228 559.578 360.59C559.428 360.951 559.214 361.276 558.948 361.546C558.682 361.816 558.369 362.026 558.028 362.163L550.797 365.07C550.169 365.322 549.479 365.315 548.855 365.05C548.231 364.785 547.718 364.28 547.412 363.631L526.618 319.517C526.505 319.277 526.422 319.022 526.372 318.758L522.82 300.084C522.717 299.543 522.44 299.059 522.04 298.72C521.64 298.38 521.142 298.208 520.635 298.233C520.129 298.258 519.647 298.479 519.277 298.856C518.906 299.233 518.671 299.742 518.614 300.292L511.448 368.57C511.371 369.3 511.052 369.973 510.549 370.462C510.047 370.951 509.397 371.221 508.724 371.221Z" fill="#2F495E"/>
<path d="M512.277 166.438C520.541 166.438 527.24 159.129 527.24 150.113C527.24 141.097 520.541 133.788 512.277 133.788C504.013 133.788 497.314 141.097 497.314 150.113C497.314 159.129 504.013 166.438 512.277 166.438Z" fill="#FFB8B8"/>
<path d="M522.593 265.425C509.357 265.425 498.994 259.413 495.242 256.896H495.242C494.817 256.611 494.471 256.203 494.244 255.718C494.016 255.233 493.916 254.689 493.952 254.146L497.591 197.4C497.825 193.571 498.876 189.854 500.662 186.547C502.448 183.24 504.918 180.435 507.875 178.356C510.7 176.316 513.922 175.026 517.286 174.589C520.649 174.151 524.06 174.579 527.245 175.837C528.65 176.366 529.978 177.117 531.185 178.064C539.245 184.614 543.13 194.478 541.843 205.125C539.175 227.205 542.197 256.989 542.551 260.313L542.576 260.552L542.376 260.653C536.178 263.796 529.427 265.424 522.593 265.425Z" fill="#6C63FF"/>
<path d="M541.642 273.53C542.358 272.943 542.946 272.191 543.367 271.328C543.788 270.466 544.03 269.513 544.076 268.537C544.123 267.561 543.973 266.586 543.636 265.68C543.3 264.775 542.786 263.96 542.13 263.295L550.91 241.56L539.756 243.622L533.129 263.946C532.177 265.222 531.688 266.835 531.753 268.479C531.819 270.122 532.434 271.683 533.484 272.864C534.533 274.045 535.943 274.766 537.447 274.888C538.951 275.011 540.443 274.528 541.642 273.53Z" fill="#FFB8B8"/>
<path d="M542.482 260.104C542.102 260.104 541.727 260.018 541.379 259.851C541.032 259.684 540.72 259.439 540.464 259.134L537.191 255.238C536.873 254.857 536.65 254.393 536.543 253.89C536.437 253.388 536.45 252.864 536.583 252.369L544.079 224.687L532.673 198.554C532.173 197.405 532.051 196.104 532.326 194.868C532.57 193.783 533.108 192.804 533.872 192.061C534.635 191.317 535.587 190.843 536.602 190.701C537.617 190.56 538.648 190.757 539.558 191.268C540.468 191.779 541.215 192.578 541.701 193.561L557.119 220.858C557.719 221.918 558.071 223.123 558.144 224.367C558.218 225.611 558.01 226.855 557.54 227.99L544.984 258.343C544.798 258.795 544.511 259.188 544.151 259.489C543.79 259.79 543.367 259.988 542.919 260.066C542.774 260.091 542.628 260.104 542.482 260.104Z" fill="#6C63FF"/>
<path d="M524.605 164.506C523.053 164.796 521.777 162.439 521.584 160.782C521.391 159.124 521.944 157.538 522.005 155.891C522.065 154.244 521.353 152.243 519.786 151.755C518.142 151.243 516.619 152.681 514.937 152.508C512.593 152.267 511.416 149.274 511.132 146.853C510.848 144.432 510.625 141.564 508.594 140.183C506.571 138.807 504.067 139.808 501.741 139.851C497.811 139.924 493.81 136.654 492.891 132.618C493.368 132.768 493.877 132.74 494.338 132.539C494.799 132.338 495.185 131.974 495.435 131.507C495.632 131.008 495.672 130.452 495.549 129.926C495.426 129.399 495.147 128.932 494.756 128.597L499.211 130.977C498.602 129.625 499.522 128.085 500.787 127.573C502.053 127.061 503.526 127.291 504.922 127.528C511.898 128.71 519.978 128.127 524.605 133.93C527.81 137.95 530.448 145.598 530.088 150.547C529.728 155.496 524.605 164.506 524.605 164.506Z" fill="#2F495E"/>
<path d="M445.266 192.336C446.044 191.852 446.91 191.561 447.803 191.482C448.695 191.403 449.593 191.538 450.433 191.879C451.272 192.219 452.033 192.757 452.661 193.453C453.29 194.149 453.771 194.986 454.071 195.907L475.84 195.736L469.68 206.089L449.952 204.664C448.501 205.111 446.95 204.961 445.593 204.244C444.236 203.526 443.168 202.291 442.59 200.771C442.012 199.252 441.966 197.553 442.459 195.999C442.952 194.444 443.951 193.141 445.266 192.336Z" fill="#FFB8B8"/>
<path d="M456.593 203.62C456.516 203.214 456.517 202.796 456.596 202.391C456.675 201.986 456.831 201.603 457.053 201.267L459.881 196.976C460.158 196.559 460.529 196.226 460.958 196.01C461.387 195.793 461.86 195.701 462.331 195.742L487.795 194.578L509.821 180.593C510.75 179.824 511.893 179.428 513.058 179.47C514.081 179.509 515.069 179.885 515.892 180.548C516.715 181.212 517.335 182.132 517.669 183.188C518.003 184.243 518.035 185.385 517.763 186.461C517.49 187.537 516.925 188.498 516.142 189.217L494.793 211.252C493.964 212.109 492.954 212.731 491.853 213.063C490.753 213.394 489.594 213.426 488.479 213.155L458.684 205.933C458.241 205.827 457.829 205.601 457.485 205.277C457.142 204.954 456.878 204.542 456.717 204.079C456.665 203.93 456.623 203.776 456.593 203.62Z" fill="#6C63FF"/>
<path d="M351.38 53.897L343.041 69.6524L314.521 15.7558L226.969 181.187H286.247C286.247 185.366 287.769 189.373 290.477 192.328C293.185 195.283 296.858 196.943 300.688 196.943H226.969C224.434 196.942 221.944 196.214 219.75 194.831C217.555 193.448 215.732 191.459 214.465 189.064C213.198 186.669 212.531 183.952 212.531 181.187C212.531 178.421 213.199 175.705 214.466 173.31L302.017 7.87814C303.285 5.4829 305.108 3.49386 307.303 2.11095C309.498 0.728044 311.989 0 314.524 0C317.058 0 319.549 0.728044 321.744 2.11095C323.939 3.49386 325.762 5.4829 327.03 7.87814L351.38 53.897Z" fill="#00C58E"/>
<path d="M414.581 173.31L359.719 69.6524L351.38 53.897L343.041 69.6524L288.185 173.31C286.917 175.705 286.25 178.421 286.25 181.187C286.25 183.952 286.917 186.669 288.184 189.064C289.451 191.459 291.274 193.448 293.468 194.831C295.663 196.214 298.153 196.942 300.688 196.943H402.06C404.595 196.943 407.086 196.216 409.282 194.833C411.477 193.451 413.301 191.462 414.568 189.067C415.836 186.671 416.504 183.954 416.504 181.188C416.504 178.422 415.837 175.705 414.569 173.31H414.581V173.31ZM300.688 181.187L351.38 85.4078L402.06 181.187H300.688V181.187Z" fill="#2F495E"/>
<path d="M453.805 189.065C452.538 191.46 450.716 193.449 448.521 194.832C446.326 196.214 443.837 196.943 441.302 196.943H402.06C403.957 196.943 405.834 196.535 407.586 195.744C409.338 194.952 410.93 193.791 412.271 192.328C413.612 190.865 414.676 189.128 415.401 187.217C416.127 185.305 416.501 183.256 416.501 181.187H441.272L370.983 48.3629L359.719 69.6524L351.38 53.897L358.48 40.4852C359.747 38.09 361.57 36.101 363.766 34.7181C365.961 33.3351 368.451 32.6071 370.986 32.6071C373.521 32.6071 376.011 33.3351 378.206 34.7181C380.402 36.101 382.225 38.09 383.492 40.4852L453.805 173.31C455.073 175.705 455.74 178.422 455.74 181.187C455.74 183.953 455.073 186.67 453.805 189.065Z" fill="#108775"/>
<path d="M168.57 386.671C168.57 380.148 170.945 373.893 175.172 369.281C179.399 364.669 185.132 362.077 191.111 362.077C197.089 362.077 202.822 364.669 207.049 369.281C211.276 373.893 213.651 380.148 213.651 386.671" fill="#2F495E"/>
<path d="M154.328 235.725L27.2199 270.96C25.6249 271.4 23.935 271.132 22.5211 270.214C21.1071 269.296 20.0845 267.804 19.6775 266.065L1.14199 186.465C0.846499 185.19 1.02658 183.839 1.64273 182.709C2.25888 181.579 3.26078 180.761 4.42863 180.436L134.677 144.331C135.866 144.003 137.126 144.203 138.179 144.887C139.233 145.571 139.995 146.683 140.299 147.979L158.815 227.496C159.218 229.236 158.972 231.08 158.131 232.623C157.29 234.166 155.922 235.281 154.328 235.725Z" fill="#2F495E"/>
<path d="M31.524 262.781L146.968 230.78C148.515 230.351 149.842 229.27 150.658 227.773C151.474 226.277 151.712 224.488 151.319 222.8L137.099 161.735C136.706 160.047 135.715 158.599 134.343 157.709C132.972 156.819 131.332 156.56 129.785 156.988L14.341 188.99C12.7943 189.418 11.467 190.5 10.6511 191.996C9.83528 193.493 9.59771 195.282 9.99069 196.969L24.2102 258.035C24.6032 259.722 25.5945 261.17 26.9661 262.061C28.3377 262.951 29.9772 263.21 31.524 262.781Z" fill="white"/>
<path d="M140.108 147.544L0.970163 186.113L0.192235 182.772C-0.211918 181.026 0.0352691 179.176 0.879566 177.628C1.72386 176.081 3.09632 174.962 4.69584 174.517L131.761 139.294C133.361 138.852 135.057 139.121 136.476 140.041C137.895 140.961 138.921 142.458 139.33 144.203L140.108 147.544Z" fill="#2F495E"/>
<path d="M10.7871 179.878C11.6768 179.878 12.3981 179.091 12.3981 178.12C12.3981 177.15 11.6768 176.363 10.7871 176.363C9.89745 176.363 9.17621 177.15 9.17621 178.12C9.17621 179.091 9.89745 179.878 10.7871 179.878Z" fill="white"/>
<path d="M16.7136 178.235C17.6033 178.235 18.3245 177.448 18.3245 176.478C18.3245 175.507 17.6033 174.72 16.7136 174.72C15.8239 174.72 15.1026 175.507 15.1026 176.478C15.1026 177.448 15.8239 178.235 16.7136 178.235Z" fill="white"/>
<path d="M22.64 176.593C23.5297 176.593 24.2509 175.806 24.2509 174.835C24.2509 173.864 23.5297 173.077 22.64 173.077C21.7503 173.077 21.0291 173.864 21.0291 174.835C21.0291 175.806 21.7503 176.593 22.64 176.593Z" fill="white"/>
<path d="M135.56 210.118L31.7212 238.902C31.3382 239.008 30.9399 239.031 30.5489 238.969C30.1578 238.907 29.7818 238.762 29.4422 238.542C29.1027 238.321 28.8062 238.03 28.5698 237.685C28.3333 237.339 28.1616 236.947 28.0643 236.529C27.967 236.111 27.9461 235.676 28.0027 235.25C28.0594 234.823 28.1925 234.413 28.3945 234.042C28.5965 233.672 28.8634 233.348 29.18 233.09C29.4965 232.832 29.8565 232.645 30.2395 232.539L134.078 203.755C134.852 203.54 135.672 203.67 136.357 204.115C137.043 204.56 137.539 205.284 137.735 206.128C137.932 206.972 137.813 207.866 137.405 208.614C136.997 209.363 136.334 209.903 135.56 210.118Z" fill="#2F495E"/>
<path d="M135.694 222.358L105.121 230.834C104.738 230.94 104.34 230.963 103.949 230.901C103.558 230.839 103.182 230.694 102.842 230.473C102.502 230.253 102.206 229.962 101.969 229.616C101.733 229.271 101.561 228.878 101.464 228.46C101.367 228.043 101.346 227.608 101.402 227.181C101.459 226.755 101.592 226.344 101.794 225.974C101.996 225.603 102.263 225.28 102.58 225.022C102.896 224.764 103.256 224.577 103.639 224.471L134.213 215.995C134.986 215.781 135.806 215.91 136.492 216.355C137.177 216.8 137.673 217.524 137.869 218.368C138.066 219.212 137.947 220.106 137.539 220.855C137.131 221.603 136.468 222.144 135.694 222.358Z" fill="#2F495E"/>
<path d="M130.715 180.978L64.7846 199.255C64.0112 199.469 63.1915 199.34 62.5057 198.894C61.8199 198.449 61.3242 197.725 61.1277 196.881C60.9312 196.038 61.05 195.143 61.4579 194.395C61.8659 193.647 62.5295 193.106 63.3029 192.892L129.233 174.615C129.616 174.509 130.015 174.486 130.406 174.547C130.797 174.609 131.174 174.754 131.513 174.974C131.853 175.195 132.15 175.486 132.386 175.832C132.623 176.177 132.795 176.57 132.892 176.988C132.99 177.406 133.01 177.841 132.954 178.268C132.897 178.694 132.764 179.105 132.561 179.475C132.359 179.846 132.092 180.169 131.775 180.427C131.459 180.685 131.098 180.873 130.715 180.978Z" fill="#2F495E"/>
<path d="M133.401 192.512L67.4702 210.788C66.6968 211.002 65.8771 210.873 65.1913 210.428C64.5055 209.983 64.0098 209.258 63.8133 208.415C63.6168 207.571 63.7356 206.676 64.1435 205.928C64.5515 205.18 65.2151 204.639 65.9885 204.425L131.919 186.148C132.692 185.934 133.512 186.064 134.198 186.509C134.884 186.954 135.379 187.678 135.576 188.522C135.772 189.366 135.654 190.26 135.246 191.008C134.838 191.756 134.174 192.297 133.401 192.512Z" fill="#2F495E"/>
<path d="M57.2954 219.747L28.4995 227.729C27.8711 227.902 27.2054 227.797 26.6484 227.435C26.0914 227.074 25.6886 226.486 25.5282 225.801L19.8792 201.541C19.7204 200.856 19.8172 200.13 20.1485 199.522C20.4799 198.914 21.0186 198.475 21.6466 198.3L50.4425 190.318C51.0708 190.144 51.7365 190.25 52.2936 190.611C52.8506 190.973 53.2534 191.561 53.4137 192.246L59.0627 216.505C59.2216 217.191 59.1248 217.917 58.7935 218.525C58.4621 219.133 57.9234 219.572 57.2954 219.747Z" fill="#2F495E"/>
<path d="M69.3409 257.593C69.7072 258.283 70.1946 258.888 70.7752 259.372C71.3559 259.857 72.0184 260.212 72.7249 260.417C73.4315 260.622 74.1681 260.673 74.8927 260.567C75.6174 260.462 76.3158 260.201 76.948 259.8C77.5802 259.4 78.1338 258.867 78.5772 258.233C79.0206 257.599 79.345 256.875 79.5319 256.104C79.7188 255.333 79.7645 254.529 79.6665 253.739C79.5684 252.948 79.3284 252.187 78.9604 251.497C78.8048 251.213 78.6297 250.942 78.4365 250.686L83.1154 214.302L83.2555 213.212L84.2059 205.787L84.346 204.717L83.8281 204.744L74.7632 205.196L72.3323 205.315L72.0277 212.088L70.3035 250.168C69.4028 251.108 68.818 252.352 68.6434 253.698C68.4688 255.045 68.7145 256.417 69.3409 257.593Z" fill="#FFB8B8"/>
<path d="M83.2286 213.543L71.7179 212.391C71.1208 212.329 70.5703 212.012 70.1864 211.51C69.8025 211.007 69.6162 210.359 69.6683 209.707L71.8034 183.591C71.9069 182.322 72.2425 181.089 72.7904 179.965C73.3384 178.84 74.0875 177.847 74.9934 177.044C75.8993 176.241 76.9437 175.645 78.0647 175.29C79.1857 174.935 80.3605 174.829 81.5197 174.978C82.6789 175.128 83.7988 175.529 84.8133 176.159C85.8277 176.789 86.7161 177.634 87.4257 178.645C88.1354 179.656 88.652 180.813 88.9449 182.045C89.2378 183.278 89.3011 184.562 89.131 185.822L85.6795 211.439C85.6003 212.026 85.3304 212.562 84.9191 212.95C84.5077 213.339 83.9823 213.552 83.4386 213.553C83.3691 213.553 83.2989 213.55 83.2286 213.543Z" fill="#6C63FF"/>
<path d="M74.5051 192.442C73.3408 188.844 73.2869 184.93 74.3514 181.295C75.4159 177.661 77.5405 174.505 80.4013 172.311C84.7419 169.07 90.6817 167.907 97.0784 176.216C109.872 192.833 113.222 211.111 113.222 211.111L87.0265 215.764C87.0265 215.764 78.1169 203.883 74.5051 192.442Z" fill="#6C63FF"/>
<path d="M116.873 379.621L124.341 379.62L127.894 348.189L116.871 348.19L116.873 379.621Z" fill="#FFB8B8"/>
<path d="M138.746 387.186L115.272 387.188L115.272 377.293L129.676 377.292C130.867 377.292 132.046 377.548 133.147 378.045C134.247 378.542 135.247 379.271 136.089 380.19C136.931 381.108 137.599 382.199 138.055 383.4C138.511 384.6 138.746 385.887 138.746 387.186Z" fill="#2F495E"/>
<path d="M55.4679 372.514L62.5591 375.071L74.9748 346.445L64.5086 342.67L55.4679 372.514Z" fill="#FFB8B8"/>
<path d="M74.0592 387.188L51.7718 379.15L54.618 369.755L68.2943 374.687C70.5781 375.511 72.4685 377.29 73.5496 379.635C74.6308 381.979 74.814 384.696 74.0592 387.188L74.0592 387.188Z" fill="#2F495E"/>
<path d="M90.9479 164.07C99.2117 164.07 105.911 156.761 105.911 147.744C105.911 138.728 99.2117 131.419 90.9479 131.419C82.6842 131.419 75.9851 138.728 75.9851 147.744C75.9851 156.761 82.6842 164.07 90.9479 164.07Z" fill="#FFB8B8"/>
<path d="M104.049 370.87L97.1128 320.923C97.0388 320.39 96.7974 319.902 96.4298 319.541C96.0623 319.181 95.5914 318.971 95.0977 318.947C94.604 318.924 94.1181 319.088 93.7231 319.412C93.3282 319.736 93.0486 320.2 92.9323 320.724L82.3699 368.323C82.2035 369.053 81.7933 369.688 81.2199 370.104C80.6464 370.52 79.9511 370.687 79.2703 370.573L50.1349 365.464C49.7486 365.396 49.3801 365.239 49.054 365.003C48.728 364.767 48.452 364.458 48.2447 364.096C48.0374 363.734 47.9035 363.327 47.852 362.904C47.8006 362.481 47.8327 362.051 47.9463 361.642L85.9371 224.987C86.0451 224.598 86.0579 224.185 85.9743 223.789L84.7094 217.809C84.5704 217.16 84.6345 216.48 84.8914 215.876C85.1483 215.272 85.5832 214.779 86.1268 214.476C91.3 211.596 104.4 205.609 114.291 212.168C114.612 212.381 114.89 212.664 115.108 212.998C115.326 213.333 115.479 213.712 115.558 214.113L145.236 366.302C145.317 366.716 145.316 367.144 145.234 367.557C145.152 367.971 144.991 368.361 144.761 368.701C144.53 369.041 144.236 369.325 143.898 369.532C143.56 369.739 143.186 369.866 142.799 369.904L107.004 373.401C106.922 373.409 106.84 373.413 106.758 373.413C106.103 373.412 105.47 373.155 104.973 372.688C104.476 372.222 104.148 371.577 104.049 370.87Z" fill="#2F495E"/>
<path d="M81.0263 136.21C82.1542 135.47 83.1552 134.521 83.9842 133.405C84.393 132.842 84.6621 132.173 84.7655 131.463C84.869 130.754 84.8033 130.027 84.5749 129.353C83.8189 127.533 81.5724 126.957 79.8319 127.577C78.0913 128.197 76.7465 129.685 75.4744 131.122C74.3538 132.388 73.2013 133.709 72.6697 135.37C72.1382 137.032 72.4112 139.138 73.7333 140.146C75.0307 141.135 76.8961 140.73 78.144 139.668C79.3918 138.606 80.1643 137.029 80.9008 135.501L81.0263 136.21Z" fill="#2F495E"/>
<path d="M75.9586 131.559C75.8756 126.959 71.07 123.66 66.9199 124.476C62.7698 125.291 59.5797 129.151 57.9828 133.41C54.609 142.406 57.1417 152.672 60.3925 161.722C63.6434 170.773 67.6663 179.96 67.1921 189.667C66.8716 194.914 65.2582 199.969 62.5222 204.299C59.7862 208.628 56.0293 212.071 51.6483 214.263C56.3321 216.58 61.9307 214.187 65.8666 210.576C74.6075 202.556 77.9815 188.279 73.8843 176.648C71.8635 170.911 68.3022 166.003 65.5218 160.658C62.7414 155.313 60.7014 149.014 62.1369 143.071C63.5724 137.128 69.6814 132.315 74.9042 134.617L75.9586 131.559Z" fill="#2F495E"/>
<path d="M91.8452 154.989C90.541 152.584 89.2241 149.426 91.6089 147.324C92.1273 146.888 92.7205 146.569 93.3534 146.387C93.9864 146.204 94.6465 146.161 95.2948 146.261C97.9829 146.614 100.91 146.76 103.512 145.695C104.487 145.328 105.386 144.752 106.153 143.999C106.921 143.247 107.542 142.334 107.98 141.314C109.323 137.842 107.641 133.623 104.833 131.428C103.115 130.134 101.086 129.422 98.9984 129.381C96.9113 129.341 94.8598 129.974 93.1011 131.201C89.4643 129.449 85.0515 130.228 81.7475 132.641C78.4435 135.053 76.1826 138.917 74.9543 143.043C73.823 146.594 73.6282 150.42 74.3921 154.086C75.0069 156.636 76.176 158.987 77.8003 160.94C79.4246 162.893 81.4563 164.39 83.7233 165.305C84.6065 165.685 85.5656 165.805 86.5046 165.653C87.4436 165.501 88.3295 165.082 89.0735 164.439C89.0735 164.439 91.1358 162.475 91.7811 160.109C92.2768 158.292 92.5421 156.274 91.8452 154.989Z" fill="#2F495E"/>
<path d="M289.834 388H33.3565C33.195 388 33.04 387.93 32.9257 387.805C32.8115 387.681 32.7473 387.512 32.7473 387.335C32.7473 387.159 32.8115 386.99 32.9257 386.865C33.04 386.741 33.195 386.671 33.3565 386.671H289.834C289.995 386.671 290.15 386.741 290.264 386.865C290.379 386.99 290.443 387.159 290.443 387.335C290.443 387.512 290.379 387.681 290.264 387.805C290.15 387.93 289.995 388 289.834 388Z" fill="#CCCCCC"/>
<path d="M136.234 169.556C136.159 169.914 136.11 170.279 136.088 170.646L109.918 187.118L103.557 183.123L96.7755 192.808L107.406 201.075C108.265 201.743 109.299 202.089 110.354 202.061C111.408 202.033 112.426 201.633 113.254 200.92L140.24 177.692C141.457 178.184 142.784 178.26 144.042 177.909C145.3 177.559 146.431 176.798 147.283 175.73C148.136 174.661 148.67 173.334 148.815 171.926C148.959 170.518 148.708 169.095 148.093 167.847C147.479 166.599 146.53 165.584 145.374 164.939C144.219 164.293 142.91 164.046 141.622 164.232C140.335 164.417 139.13 165.026 138.167 165.977C137.205 166.928 136.53 168.176 136.234 169.556V169.556Z" fill="#FFB8B8"/>
<path d="M109.043 187.898L100.585 199.858C100.344 200.199 100.039 200.478 99.6903 200.678C99.3416 200.878 98.9575 200.994 98.5642 201.018C98.1708 201.041 97.7774 200.972 97.4108 200.815C97.0442 200.657 96.713 200.416 96.4397 200.106L86.8645 189.258C85.2748 187.905 84.2418 185.919 83.9921 183.736C83.7425 181.553 84.2966 179.352 85.5329 177.614C86.7692 175.876 88.5868 174.745 90.5868 174.467C92.5869 174.19 94.6062 174.789 96.2017 176.134L108.211 183.461C108.555 183.671 108.853 183.959 109.086 184.306C109.318 184.653 109.479 185.05 109.558 185.472C109.637 185.893 109.632 186.327 109.543 186.746C109.454 187.165 109.283 187.558 109.043 187.898H109.043Z" fill="#6C63FF"/>
<path d="M191.111 388C190.949 388 190.794 387.93 190.68 387.805C190.566 387.681 190.501 387.512 190.501 387.335V374.374C190.501 374.198 190.566 374.029 190.68 373.904C190.794 373.779 190.949 373.709 191.111 373.709C191.272 373.709 191.427 373.779 191.541 373.904C191.656 374.029 191.72 374.198 191.72 374.374V387.335C191.72 387.512 191.656 387.681 191.541 387.805C191.427 387.93 191.272 388 191.111 388Z" fill="#CCCCCC"/>
<path d="M191.11 382.217C190.965 382.217 190.824 382.16 190.714 382.056L183.403 375.211C183.342 375.154 183.292 375.085 183.255 375.007C183.219 374.929 183.196 374.844 183.19 374.756C183.184 374.669 183.193 374.581 183.218 374.498C183.243 374.415 183.283 374.337 183.335 374.271C183.387 374.205 183.451 374.15 183.523 374.11C183.595 374.071 183.673 374.047 183.753 374.041C183.833 374.035 183.913 374.045 183.99 374.073C184.066 374.101 184.136 374.145 184.197 374.202L191.507 381.048C191.602 381.136 191.669 381.254 191.7 381.386C191.732 381.517 191.725 381.656 191.682 381.783C191.639 381.91 191.561 382.02 191.458 382.098C191.356 382.175 191.235 382.217 191.11 382.217H191.11Z" fill="#CCCCCC"/>
<path d="M221.571 386.671C221.571 380.148 223.946 373.893 228.173 369.281C232.4 364.669 238.134 362.077 244.112 362.077C250.09 362.077 255.823 364.669 260.05 369.281C264.278 373.893 266.652 380.148 266.652 386.671" fill="#2F495E"/>
<path d="M244.112 388C243.95 388 243.795 387.93 243.681 387.805C243.567 387.681 243.502 387.512 243.502 387.335V374.374C243.502 374.198 243.567 374.029 243.681 373.904C243.795 373.779 243.95 373.709 244.112 373.709C244.273 373.709 244.428 373.779 244.542 373.904C244.657 374.029 244.721 374.198 244.721 374.374V387.335C244.721 387.512 244.657 387.681 244.542 387.805C244.428 387.93 244.273 388 244.112 388Z" fill="#CCCCCC"/>
<path d="M244.111 382.217C243.966 382.217 243.825 382.16 243.715 382.057L236.404 375.211C236.282 375.096 236.206 374.933 236.194 374.757C236.181 374.581 236.234 374.407 236.339 374.273C236.444 374.14 236.594 374.057 236.755 374.044C236.916 374.03 237.075 374.087 237.198 374.202L244.509 381.048C244.603 381.136 244.67 381.254 244.702 381.386C244.733 381.517 244.726 381.656 244.683 381.783C244.64 381.911 244.562 382.02 244.46 382.098C244.357 382.175 244.236 382.217 244.111 382.217Z" fill="#CCCCCC"/>
</g>
<defs>
<clipPath id="clip0_1_40">
<rect width="639" height="388" fill="white"/>
</clipPath>
</defs>
</svg>
